<?xml version="1.0" encoding="utf-8"?>
<!-- Generator: Adobe Illustrator 19.0.0, SVG Export Plug-In . SVG Version: 6.00 Build 0)  -->
<svg version="1.1" id="Layer_1" xmlns="http://www.w3.org/2000/svg" xmlns:xlink="http://www.w3.org/1999/xlink" x="0px" y="0px"
	 viewBox="-150 255.9 309.3 283.1" style="enable-background:new -150 255.9 309.3 283.1;" xml:space="preserve">
<style type="text/css">
	.st0{fill:#FFFFFF;}
</style>
<g>
	<path class="st0" d="M160.9,482.3h-4.6c0.2,1,0.3,2,0.3,3s-0.1,2-0.3,3h4.6c1.7,0,3-1.3,3-3S162.5,482.3,160.9,482.3z"/>
	<path class="st0" d="M-35.4,390.5c-1.6,1.1-3.4,1.8-5.4,1.9c-0.1,0-0.2,0-0.3,0l21.7,76.7c1.8-0.9,3.7-1.4,5.8-1.6L-35.4,390.5z"/>
	<path class="st0" d="M120.8,482.3H6.1c0.2,1,0.3,2,0.3,3s-0.1,2-0.3,3h114.7c-0.2-1-0.3-2-0.3-3
		C120.5,484.3,120.6,483.3,120.8,482.3z"/>
	<path class="st0" d="M153.5,485.3c0-8.3-6.7-15-15-15s-15,6.7-15,15s6.7,15,15,15S153.5,493.6,153.5,485.3z M138.5,492.3
		c-3.9,0-7-3.1-7-7s3.1-7,7-7s7,3.1,7,7C145.5,489.1,142.4,492.3,138.5,492.3z"/>
	<path class="st0" d="M3.3,485.3c0-8.3-6.7-15-15-15s-15,6.7-15,15s6.7,15,15,15S3.3,493.6,3.3,485.3z M-11.7,492.3
		c-3.9,0-7-3.1-7-7s3.1-7,7-7s7,3.1,7,7C-4.7,489.1-7.8,492.3-11.7,492.3z"/>
	<path class="st0" d="M-103.1,342.7v-0.1c-0.2-2.8,0.6-5.3,2.3-7.4c1.7-2,4.1-3.3,6.8-3.5c0.3,0,0.6,0,0.8,0c5.1,0,9.5,4,10,9.1
		c0,0.1,0,0.3,0.1,0.5c0.1,0.6,0.2,1.3,0.4,2.1c0.4,1.7,1.1,4.4,2.3,7.3c0.2,0.4,0.4,0.8,0.6,1.3c0.4-1.2,0.9-2.3,1.3-3.5
		c4.4-9.4,2.6-21.7-5.5-25.2c-8.1-3.4-21-0.8-28.3,12.9c-9.9,18.9-13.4,31.6-14.3,53.9c0.2,7.2,2.4,11.9,5.5,15
		c0.1,0.7,0.3,1.5,0.6,2.2l0,0l0,0c0,0.1,0.2,0.4,0.3,1c0.7,2.2,2,7.6,2,15.2c-0.1,13.3-3.8,33.2-23.9,55.9
		c-4.6,5.2-4.1,13.1,1,17.6c2.4,2.1,5.3,3.2,8.3,3.2c3.4,0,6.9-1.4,9.3-4.2c20.4-22.9,28-45.7,29.8-63.3c0.3,0.5,0.6,1,0.9,1.6
		c6.9,12,13.8,29.5,16.2,54.4c0.6,6.5,6.1,11.3,12.4,11.3c0.4,0,0.8,0,1.2-0.1c6.9-0.7,11.9-6.8,11.3-13.6c-3.2-33.5-13.8-57-24-72
		c-6.1-9-12-15-16-18.5c0.4-6.7,1.9-13.7,3.8-20.4c-2.3-2.4-4.4-5.1-6.3-8C-101,356.8-102.7,346.6-103.1,342.7z"/>
	<path class="st0" d="M-33.2,382c-0.2-4.4-3.9-7.9-8.3-7.7c-1,0-2,0.1-2.9,0.1c-10.2,0-17.4-2.2-22.8-5.3
		c-8.1-4.6-12.5-11.5-15.1-17.6c-1.3-3-2-5.8-2.4-7.7c-0.2-1-0.3-1.7-0.4-2.2c0-0.2-0.1-0.4-0.1-0.5V341l0,0
		c-0.4-4.4-4.2-7.6-8.6-7.3c-4.4,0.4-7.7,4.2-7.3,8.6c0.1,0.7,1,12,8.6,24c3.8,6,9.4,12.1,17.4,16.6c7.9,4.5,18.1,7.4,30.6,7.4h0.1
		c1.2,0,2.4,0,3.6-0.1C-36.4,390.1-33,386.4-33.2,382z"/>
	<path class="st0" d="M-57.9,280.1c-8.9-8.6-23.2-8.4-31.8,0.5s-8.4,23.2,0.5,31.8c8.9,8.6,23.2,8.4,31.8-0.5c3.9-4,5.9-9,6.3-14.2
		c-3-0.8-6.1-1.7-9.4-2.4c-8.2-1.8-15.5-3.9-20.6-5.9c4.9,1.1,11.2,2.2,18,3c8.5,1,16.3,1.3,21.7,1.1c4.9-0.2,8-0.9,8.1-2
		c0.2-1.8-7.4-4.2-18.4-6.1c-0.8-0.1-1.6-0.3-2.5-0.4C-55.1,283.3-56.4,281.6-57.9,280.1z"/>
	<path class="st0" d="M5.2,345.9v119.6h119.6c1.3-5.8,4.5-20.9,4.5-28.8c0-3.3,0-12.2-3-14.2c-1.5-1-4.2-0.3-6.1,0.6
		c-8.5,3.5-19.1,6.9-26.4,2c-4.9-3.3-7.4-9.7-7.4-19.1s2.5-15.9,7.4-19.1c7.3-4.9,18-1.5,26.4,2c2,0.8,4.6,1.6,6.1,0.6
		c3-2,3-10.8,3-14.2c0-8.1-3.4-23.9-4.6-29.3c-5.3-1.2-21.2-4.6-29.3-4.6c-10.4,0-14.7,1.4-14.7,4.9c0,1.1,0.4,2.6,1,4.2
		c2.1,5,4.5,11.5,4.5,17.5c0,5-1.7,9-5,11.7c-3.7,3.1-9.1,4.6-16.6,4.6c-17.9,0-21.6-8.9-21.6-16.4c0-6,2.4-12.5,4.5-17.5
		c0.7-1.7,1-3.1,1-4.2c0-3.5-4.2-4.9-14.7-4.9C26.1,341.4,10.9,344.6,5.2,345.9z"/>
</g>
</svg>
