<?xml version="1.0" encoding="utf-8"?>
<!-- Generator: Adobe Illustrator 19.0.0, SVG Export Plug-In . SVG Version: 6.00 Build 0)  -->
<svg version="1.1" id="Layer_1" xmlns="http://www.w3.org/2000/svg" xmlns:xlink="http://www.w3.org/1999/xlink" x="0px" y="0px"
	 viewBox="194 -104 1000 1000" style="enable-background:new 194 -104 1000 1000;" xml:space="preserve">
<style type="text/css">
	.st0{fill:#FFFFFF;}
</style>
<path class="st0" d="M563.4,375.3c-27.3-6.3-59.4-7-86.9-1.6c-9.1,1.8-74.7,26-148.8,54.9L195,480.1l54.7,137.1
	c30.1,75.6,55.2,137.5,55.8,137.8c0.6,0.3,24.2-14.8,52.5-33.4l51.5-33.8l155.8,66.9c165.3,70.8,172.7,73.5,201.2,74.8
	c7.2,0.5,18.9-0.2,26.1-1.4c7.4-1.1,92.6-28.3,189.6-60.5c126.6-42,177.6-59.9,181-63.7c12.9-14,12.2-29.5-1.6-46.2
	c-14.9-17.9-37.8-27.4-67.7-28.1c-7.3-0.3-70.4,13.1-159.7,33.5l-147.8,34.1L723,670.1l-63.3-27.2l-9.2-23l-9.2-23l59.3,25.5
	c66.1,28.4,78.5,32.3,100.2,31.1c60.4-3.1,86.5-66.2,46.4-112l-10.4-11.9l-66.7-30.3c-37.5-16.8-70.2-32.8-74.5-36.1
	c-4.3-3.3-15.2-13.9-24.4-23.6c-25.1-26.3-35.7-33.9-68.8-48.8C586.5,383.5,569.1,376.5,563.4,375.3z"/>
<g>
	<path class="st0" d="M1076.4,72c-2.2-2.2-5.1-3.3-8.5-3.3h-63.6c-4.2-20.6-12.2-38.4-23.8-53.5h86.6c3.5,0,6.3-1.1,8.6-3.3
		c2.2-2.2,3.3-5.1,3.3-8.6v-37.9c0-3.5-1.1-6.3-3.3-8.6c-2.2-2.2-5.1-3.3-8.6-3.3H757.7c-3.5,0-6.3,1.1-8.6,3.3
		c-2.2,2.2-3.3,5.1-3.3,8.6v49.5c0,3.2,1.2,6,3.5,8.4c2.4,2.4,5.1,3.5,8.4,3.5h53.9c52.3,0,85.5,14,99.7,42H757.7
		c-3.5,0-6.3,1.1-8.6,3.3c-2.2,2.2-3.3,5.1-3.3,8.6v37.9c0,3.5,1.1,6.3,3.3,8.5c2.2,2.2,5.1,3.3,8.6,3.3h158.8
		c-5.5,20.3-18.2,35.8-38.1,46.5c-20,10.7-46.3,16-79,16h-41.6c-3.2,0-6,1.2-8.4,3.5c-2.4,2.4-3.5,5.1-3.5,8.4V252
		c0,3.2,1.1,6,3.3,8.2c47.6,50.6,109.3,121.3,185.2,212.3c2.2,3,5.3,4.5,9.3,4.5h72.5c5.2,0,8.8-2.2,10.8-6.7
		c2.5-4.5,2-8.7-1.5-12.6c-72.4-88.8-129.3-155.2-170.7-199.3c42.1-5,76.4-18.6,102.6-40.9c26.3-22.3,42.3-51.3,48-87h62.5
		c3.5,0,6.3-1.1,8.5-3.3c2.2-2.2,3.4-5.1,3.4-8.5V80.6C1079.7,77.1,1078.6,74.3,1076.4,72z"/>
</g>
</svg>
